<?xml version="1.0" encoding="utf-8"?>
<!-- Generator: Adobe Illustrator 21.0.2, SVG Export Plug-In . SVG Version: 6.00 Build 0)  -->
<svg version="1.1" id="Layer_1" xmlns="http://www.w3.org/2000/svg" xmlns:xlink="http://www.w3.org/1999/xlink" x="0px" y="0px"
   viewBox="0 0 425.2 94.2" style="enable-background:new 0 0 425.2 94.2;" width="425.2px" height="94.2px" xml:space="preserve">
<style type="text/css">
  .st0{fill:#3A383A;}
  .st1{fill:#ACB0B4;}
</style>
<title>softbank-header-logo</title>
<g id="Layer_2">
  <g id="softbank-logo">
    <g>
      <g>
        <g>
          <path class="st0" d="M143.8,14.9c-1.8-8.7-3.6-11.6-13.6-11.6c-4.2,0-7.7,1.2-10,3.2c-2,1.5-3.1,3.9-3,6.4
            c0.1,2.5,1.1,4.9,2.9,6.8c2.2,2.1,5.4,4,10.7,6.7c6.6,3.4,11.6,5.3,15.2,9.5c2.3,2.8,3.5,6.4,3.6,10c0.1,4.3-1.6,8.4-4.7,11.2
            c-3.6,3.2-9.1,5.3-16.6,5.3c-5.4-0.1-10.7-1.1-15.8-2.9c-0.6-4.2-1.5-8.4-2.8-12.5l3-0.8C115.2,56.5,120,59,128.9,59
            c3.6,0.1,7.2-1,10.1-3.1c2.8-2.1,4.4-5.3,4.3-8.8c0.1-2.8-0.8-5.5-2.7-7.5c-2.7-3.2-7.3-5.2-12.2-7.7
            c-5.2-2.6-12.2-6.4-14.7-9.9c-1.7-2.4-2.5-5.2-2.5-8.1c0-4,1.9-7.7,5.1-10c3.1-2.4,7.7-4,14.3-4c4.8-0.1,9.6,0.7,14.1,2.4
            c0.5,3.5,1.3,8,2,11.8L143.8,14.9z"/>
          <path class="st0" d="M162.4,42c0-6.5,1.2-10.7,3.5-13.7c4.4-4.6,11.6-4.7,16.2-0.4c0.1,0.1,0.2,0.2,0.4,0.4
            c2.3,3,3.5,7.2,3.5,13.7c0,6.8-1.4,11.2-3.6,13.8c-4.2,4.5-11.3,4.8-15.8,0.5c-0.2-0.2-0.4-0.4-0.5-0.5
            C163.9,53.1,162.4,48.8,162.4,42z M156.4,41.9c0,7.7,2,12.7,5.3,15.9c3.4,3,7.4,4.2,12.5,4.2c5.3,0,9.5-1.4,12.8-4.4
            c3.2-3.1,5.1-8.1,5.1-15.7c0-6.7-1.9-11.8-5.1-15.1c-3.3-3.1-7.2-4.6-12.8-4.6c-5.4,0-9.3,1.5-12.6,4.6
            C158.2,30,156.4,35.2,156.4,41.9L156.4,41.9z"/>
          <path class="st0" d="M203.5,25.8h-6.2v-2.7h6.2v-5.3c0-5.2,1.3-9,4.1-11.9c4.4-3.9,10.8-4.4,15.8-1.3c2.4,1.6,3.6,3.7,3.6,5.2
            c0,1.7-0.9,2.6-2.4,2.6c-2,0-2.8-1.8-3.7-3.6s-2-3.6-4.6-3.6c-1.6,0-3.2,0.6-4.2,1.9c-1.7,2-2.7,5.1-2.7,11.1v5H220v2.7h-10.7
            v27.6c0,5.1,0.3,5.6,6.7,5.6v2.1h-18.8V59c5.9,0,6.3-0.6,6.3-5.8L203.5,25.8z"/>
          <path class="st0" d="M223.7,23.8c5.3-0.5,9-2.5,10-11.4h2.1v10.6h9v2.7h-9V53c0,4,1.2,6,4.1,6c1.9,0,3.8-0.7,5.2-2l1.4,2
            c-2.3,2-5.2,3.1-8.3,3c-4.3,0-8.3-2-8.3-8.6V25.8h-6.3L223.7,23.8z"/>
          <path class="st0" d="M264.3,7.4c0-2.3,0.3-3,2.5-3h8c5.9,0,9.7,1.3,12.1,3.3c2.1,2,3.3,4.8,3.3,7.7c0,4-1.4,7-3.9,9
            c-3,2.5-7.8,3.6-13.6,3.6h-8.5L264.3,7.4z M258.1,52.2c0,6-0.5,6.4-6.8,6.4v2.5h27.5c8.8,0,13.8-2,17.1-5.2
            c3.1-3.1,4.8-7.3,4.7-11.7c0-4.1-2-8-5.4-10.4c-3.6-2.8-8.5-4.2-14-4.4v-0.2c5.3-0.8,8.9-2.5,11.4-4.7c2.7-2.5,4.3-6,4.2-9.7
            c0-4-2-7.7-5.4-9.9c-4.6-3-9.6-3.7-17.4-3.7h-22.7v2.4c6.3,0,6.8,0.4,6.8,6.5L258.1,52.2z M264.3,31.3h10.5
            c6.9,0,11.6,1.2,14.5,3.5c3,2.2,4.7,5.6,4.7,9.3c0,4.4-1.3,7.5-3.3,9.6c-2.9,3-6.7,4.2-12.8,4.2h-10.5c-2.6,0-3.1-0.6-3.1-4.2
            L264.3,31.3z"/>
          <path class="st0" d="M328.6,54.4c-2.1,2.1-5,4.4-9.1,4.4c-2.1,0.1-4.1-0.6-5.6-2c-1.3-1.5-2-3.4-1.9-5.3c0-3.9,2.4-6.1,5.6-7.8
            c3.1-1.9,7.3-3.1,10.9-4.1L328.6,54.4z M334.5,33.9c0-3.7-0.6-6-2.8-8.4s-5.1-3.3-10.1-3.3c-3.4-0.1-6.7,0.7-9.6,2.4
            c-2.7,1.6-4.4,3.9-4.4,5.9c-0.1,1.2,0.8,2.3,2.1,2.4c0.1,0,0.2,0,0.3,0c1.3,0.1,2.6-0.7,3-2c0.5-1.6,1.4-3,2.6-4.1
            c1.6-1.3,3.7-2,5.7-1.9c2.8,0,4.8,0.8,6.1,2.5c1.1,1.4,1.4,4,1.4,5.9v3.6l-5,1.2c-4.4,0.8-8.7,2.5-12.5,4.8
            c-3.7,2.4-5.2,5.5-5.2,9.4c-0.1,2.8,1.2,5.5,3.4,7.3c2.2,1.7,5,2.6,7.8,2.5c4.4,0.2,8.7-1.5,11.8-4.7h0.3
            c0.8,2.8,2.5,4.3,5.5,4.3c1.8,0,3.6-0.4,5.1-1.2l-0.5-1.9c-0.7,0.4-1.5,0.6-2.3,0.6c-1.7,0-2.5-1.7-2.5-5.5L334.5,33.9z"/>
          <path class="st0" d="M377.5,53.5c0,4.7,0.4,5.4,4.1,5.4v2.1h-14.3V59c4.1,0,4.3-0.5,4.3-5.6V34.5c0-3.3-0.4-6-2-7.7
            c-1.3-1.2-3.1-1.8-4.9-1.7c-3.6,0-7.4,3.2-10.7,7.9v20.3c0,5.1,0.1,5.6,4,5.6v2.1h-14.8V59c4.5,0,4.9-0.5,4.9-5.6V32.8
            c0-4.9-0.4-5.5-4.9-5.4v-1.9c3.7-0.6,6.6-1.4,9.4-3.5l0.8,0.5l0.3,6.5h0.2c3.4-4.3,7.7-7,12.3-7c3.6,0,6.2,0.9,8.1,2.7
            s3,4.9,3,9.4L377.5,53.5z"/>
          <path class="st0" d="M397.2,40.3l12.1-11.8c2.3-2.1,2.9-3.4-1.2-3.4v-2.1h12.5v2.1c-2.2,0-4.3,0.9-5.7,2.5l-8.9,8.4l12.9,19.6
            c1.9,3,3.7,3.3,6.2,3.2v2.1h-9.6l-13.7-21.3l-4.7,4.7v8.9c0,4.9,0.2,5.6,4.8,5.6v2.1h-15.7V59c4.9,0,5-0.7,5-5.6v-40
            c0-4.9-0.5-5.5-5-5.5V6c3.6-0.4,7.1-1.6,10.1-3.5l0.8,0.5v37.3H397.2z"/>
        </g>
        <g>
          <rect y="0" class="st1" width="84.4" height="20.8"/>
          <rect y="41.5" class="st1" width="84.4" height="20.8"/>
        </g>
      </g>
      <g>
        <path class="st0" d="M335.9,78.6c4.5,0,7.6,3.3,7.6,7.8c0.2,4.2-3.1,7.7-7.3,7.9c-4.2,0.2-7.7-3.1-7.9-7.3c0-0.2,0-0.4,0-0.6
          C328.3,81.8,331.4,78.6,335.9,78.6z M335.9,92c3.2,0,4.7-2.9,4.7-5.6c0-2.8-1.7-5.6-4.7-5.6s-4.7,2.8-4.7,5.6
          C331.2,89.1,332.7,92,335.9,92L335.9,92z"/>
        <path class="st0" d="M346.9,73h2.8v8h0.1c0.9-1.4,2.3-2.4,5-2.4c4.3,0,6.5,3.6,6.5,7.6s-1.9,8.1-6.4,8.1c-2,0.1-3.9-0.8-5.1-2.5
          h-0.1v2.1h-2.6L346.9,73z M354,80.8c-3,0-4.4,2.8-4.4,5.6c0,2.5,1.3,5.6,4.4,5.6s4.2-3.3,4.1-5.7C358.2,83.6,357,80.8,354,80.8
          L354,80.8z"/>
        <path class="st0" d="M371.8,78.6c4.5,0,7.6,3.3,7.6,7.8c0.2,4.2-3.1,7.7-7.3,7.9c-4.2,0.2-7.7-3.1-7.9-7.3c0-0.2,0-0.4,0-0.6
          C364.1,81.8,367.2,78.6,371.8,78.6z M371.8,92c3.2,0,4.7-2.9,4.7-5.6c0-2.8-1.7-5.6-4.7-5.6s-4.7,2.8-4.7,5.6
          C367.1,89.1,368.5,92,371.8,92L371.8,92z"/>
        <path class="st0" d="M390.8,81.2h-4v8.2c-0.2,1.3,0.8,2.5,2.1,2.7c0.1,0,0.2,0,0.3,0c0.7,0,1.3-0.2,1.9-0.5v2.3
          c-0.8,0.2-1.5,0.4-2.3,0.4c-2.8,0-4.6-1.3-4.6-4.3v-8.7h-3.4v-2.2h3.4v-3.4l2.8-0.9v4.3h4L390.8,81.2z"/>
        <path class="st0" d="M397.9,76.1h-3.1V73h3.1V76.1z M395,78.9h2.8v15H395V78.9z"/>
        <path class="st0" d="M412.1,81.4c-0.9-0.4-2-0.6-3-0.7c-3.1,0-4.8,2.8-4.8,5.6c0,2.7,1.4,5.6,5,5.6c1.1,0,2.1-0.3,3-0.8l0.2,2.5
          c-1.1,0.4-2.3,0.7-3.5,0.6c-4.2,0-7.6-3.3-7.6-7.5c0-0.1,0-0.2,0-0.3c0-4.5,3-7.8,7.6-7.8c1.1,0,2.3,0.2,3.3,0.6L412.1,81.4z"/>
        <path class="st0" d="M312,73h5.1c4.1,0,8.1,0.7,8.1,5.6c0,2.4-1.9,4.5-4.3,4.8v0.1c0.9,0.4,1.4,0.8,2,2.1l3.9,8.3h-3.4l-3.2-7.2
          c-0.9-2-1.9-2-3.5-2H315v9.2h-3V73z M315,82h2.5c2.8,0,4.5-1.2,4.5-3.2s-1.4-3.1-4.2-3.1H315V82z"/>
        <path class="st0" d="M415.6,90.9c1.1,0.6,2.4,1,3.7,1.1c1.4,0,3-0.5,3-2.1c0-2.7-6.9-2.5-6.9-6.7c0-3.1,2.5-4.6,5.6-4.6
          c1.2,0,2.5,0.2,3.7,0.6l-0.2,2.4c-1-0.4-2.1-0.7-3.2-0.8c-1.5,0-2.9,0.6-2.9,1.8c0,3,6.9,2.2,6.9,6.9c0,3.2-2.5,4.7-5.4,4.7
          c-1.5,0.1-3-0.2-4.4-0.8L415.6,90.9z"/>
      </g>
    </g>
  </g>
</g>
</svg>
